<?xml version="1.0" encoding="utf-8"?>
<!-- Generator: Adobe Illustrator 24.3.0, SVG Export Plug-In . SVG Version: 6.00 Build 0)  -->
<svg version="1.1" id="Capa_1" xmlns="http://www.w3.org/2000/svg" xmlns:xlink="http://www.w3.org/1999/xlink" x="0px" y="0px"
	 viewBox="0 0 155.1 155.1" style="enable-background:new 0 0 155.1 155.1;" xml:space="preserve">
<style type="text/css">
	.st0{fill:#FFFFFF;}
</style>
<g>
	<path id="f_1_" class="st0" d="M83.5,123.4V82.5h13.7l2.1-15.9H83.5V56.4c0-4.6,1.3-7.8,7.9-7.8l8.4,0V34.4
		c-1.5-0.2-6.5-0.6-12.3-0.6c-12.2,0-20.5,7.4-20.5,21.1v11.8H53.3v15.9h13.8v40.9H83.5z"/>
</g>
<g>
	<path class="st0" d="M77.6,153.2C35.9,153.2,2,119.3,2,77.6S35.9,2,77.6,2s75.6,33.9,75.6,75.6S119.3,153.2,77.6,153.2z M77.6,14
		C42.5,14,14,42.5,14,77.6c0,35.1,28.5,63.6,63.6,63.6c35.1,0,63.6-28.5,63.6-63.6C141.2,42.5,112.6,14,77.6,14z"/>
</g>
</svg>
